<svg width="30" height="23" viewBox="0 0 30 23" fill="none" xmlns="http://www.w3.org/2000/svg">
<path d="M28.5938 0.5H28.125V1.67188C28.125 2.08203 27.7734 2.375 27.4219 2.375H25.0781C24.668 2.375 24.375 2.08203 24.375 1.67188V0.5H5.625V1.67188C5.625 2.08203 5.27344 2.375 4.92188 2.375H2.57812C2.16797 2.375 1.875 2.08203 1.875 1.67188V0.5H1.40625C0.585938 0.5 0 1.14453 0 1.90625V21.5938C0 22.4141 0.585938 23 1.40625 23H1.875V21.8281C1.875 21.4766 2.16797 21.125 2.57812 21.125H4.92188C5.27344 21.125 5.625 21.4766 5.625 21.8281V23H24.375V21.8281C24.375 21.4766 24.668 21.125 25.0781 21.125H27.4219C27.7734 21.125 28.125 21.4766 28.125 21.8281V23H28.5938C29.3555 23 30 22.4141 30 21.5938V1.90625C30 1.14453 29.3555 0.5 28.5938 0.5ZM5.625 18.5469C5.625 18.957 5.27344 19.25 4.92188 19.25H2.57812C2.16797 19.25 1.875 18.957 1.875 18.5469V16.2031C1.875 15.8516 2.16797 15.5 2.57812 15.5H4.92188C5.27344 15.5 5.625 15.8516 5.625 16.2031V18.5469ZM5.625 12.9219C5.625 13.332 5.27344 13.625 4.92188 13.625H2.57812C2.16797 13.625 1.875 13.332 1.875 12.9219V10.5781C1.875 10.2266 2.16797 9.875 2.57812 9.875H4.92188C5.27344 9.875 5.625 10.2266 5.625 10.5781V12.9219ZM5.625 7.29688C5.625 7.70703 5.27344 8 4.92188 8H2.57812C2.16797 8 1.875 7.70703 1.875 7.29688V4.95312C1.875 4.60156 2.16797 4.25 2.57812 4.25H4.92188C5.27344 4.25 5.625 4.60156 5.625 4.95312V7.29688ZM21.5625 19.4844C21.5625 19.8945 21.2109 20.1875 20.8594 20.1875H9.14062C8.73047 20.1875 8.4375 19.8945 8.4375 19.4844V13.8594C8.4375 13.5078 8.73047 13.1562 9.14062 13.1562H20.8594C21.2109 13.1562 21.5625 13.5078 21.5625 13.8594V19.4844ZM21.5625 9.64062C21.5625 10.0508 21.2109 10.3438 20.8594 10.3438H9.14062C8.73047 10.3438 8.4375 10.0508 8.4375 9.64062V4.01562C8.4375 3.66406 8.73047 3.3125 9.14062 3.3125H20.8594C21.2109 3.3125 21.5625 3.66406 21.5625 4.01562V9.64062ZM28.125 18.5469C28.125 18.957 27.7734 19.25 27.4219 19.25H25.0781C24.668 19.25 24.375 18.957 24.375 18.5469V16.2031C24.375 15.8516 24.668 15.5 25.0781 15.5H27.4219C27.7734 15.5 28.125 15.8516 28.125 16.2031V18.5469ZM28.125 12.9219C28.125 13.332 27.7734 13.625 27.4219 13.625H25.0781C24.668 13.625 24.375 13.332 24.375 12.9219V10.5781C24.375 10.2266 24.668 9.875 25.0781 9.875H27.4219C27.7734 9.875 28.125 10.2266 28.125 10.5781V12.9219ZM28.125 7.29688C28.125 7.70703 27.7734 8 27.4219 8H25.0781C24.668 8 24.375 7.70703 24.375 7.29688V4.95312C24.375 4.60156 24.668 4.25 25.0781 4.25H27.4219C27.7734 4.25 28.125 4.60156 28.125 4.95312V7.29688Z" fill="#252641"/>
</svg>
