<svg width="30" height="27" viewBox="0 0 30 27" fill="none" xmlns="http://www.w3.org/2000/svg">
<path d="M18.75 18.4375C18.75 18.9648 18.2812 19.375 17.8125 19.375H12.1875C11.6602 19.375 11.25 18.9648 11.25 18.4375V15.625H0V24.0625C0 25.5859 1.28906 26.875 2.8125 26.875H27.1875C28.6523 26.875 30 25.5859 30 24.0625V15.625H18.75V18.4375ZM27.1875 6.25H22.5V3.4375C22.5 1.97266 21.1523 0.625 19.6875 0.625H10.3125C8.78906 0.625 7.5 1.97266 7.5 3.4375V6.25H2.8125C1.28906 6.25 0 7.59766 0 9.0625V13.75H30V9.0625C30 7.59766 28.6523 6.25 27.1875 6.25ZM18.75 6.25H11.25V4.375H18.75V6.25Z" fill="#00CBB8"/>
</svg>
