<svg width="31" height="31" viewBox="0 0 31 31" fill="none" xmlns="http://www.w3.org/2000/svg">
<path d="M10.7852 18.9141L15.9414 23.1914C15.9414 23.3672 16 23.543 16 23.7188C16 28.2305 12.8945 30.75 8.5 30.75C3.16797 30.75 1 26.5312 0.941406 21.7266C1.52734 22.0781 3.57812 23.7188 4.22266 23.7188C4.57422 23.7188 4.92578 23.4844 5.04297 23.1328C6.27344 19.9688 8.38281 19.0312 10.7852 18.9141ZM27.7773 0.75C29.4766 0.75 31 1.98047 31 3.67969C31 4.61719 30.5898 5.55469 30.1797 6.375C23.5586 18.7383 21.4492 21.375 17.7578 21.375C17.3477 21.375 16.8789 21.3164 16.4688 21.1992L12.7188 18.0938C12.4258 17.3906 12.25 16.6289 12.25 15.8672C12.25 12.7031 13.4805 12.4688 25.4336 1.74609C26.0781 1.16016 26.8984 0.75 27.7773 0.75Z" fill="#49BBBD"/>
</svg>
