<svg width="34" height="31" viewBox="0 0 34 31" fill="none" xmlns="http://www.w3.org/2000/svg">
<path d="M30.9375 0.75H2.8125C1.23047 0.75 0 2.03906 0 3.5625V22.3125C0 23.8945 1.23047 25.125 2.8125 25.125H14.0625L13.125 27.9375H8.90625C8.08594 27.9375 7.5 28.582 7.5 29.3438C7.5 30.1641 8.08594 30.75 8.90625 30.75H24.8438C25.6055 30.75 26.25 30.1641 26.25 29.3438C26.25 28.582 25.6055 27.9375 24.8438 27.9375H20.625L19.6875 25.125H30.9375C32.4609 25.125 33.75 23.8945 33.75 22.3125V3.5625C33.75 2.03906 32.4609 0.75 30.9375 0.75ZM30 21.375H3.75V4.5H30V21.375Z" fill="#5B72EE"/>
</svg>
