<svg width="27" height="31" viewBox="0 0 27 31" fill="none" xmlns="http://www.w3.org/2000/svg">
<path d="M26.25 5.08594C26.25 2.68359 20.332 0.75 13.125 0.75C5.85938 0.75 0 2.68359 0 5.08594V7.72266C0 10.125 5.85938 12 13.125 12C20.332 12 26.25 10.125 26.25 7.72266V5.08594ZM26.25 11.0625C23.3789 13.0547 18.2227 13.9336 13.125 13.9336C7.96875 13.9336 2.8125 13.0547 0 11.0625V17.0977C0 19.5 5.85938 21.375 13.125 21.375C20.332 21.375 26.25 19.5 26.25 17.0977V11.0625ZM26.25 20.4375C23.3789 22.4297 18.2227 23.3086 13.125 23.3086C7.96875 23.3086 2.8125 22.4297 0 20.4375V26.4727C0 28.875 5.85938 30.75 13.125 30.75C20.332 30.75 26.25 28.875 26.25 26.4727V20.4375Z" fill="#9DCCFF"/>
</svg>
