<svg width="31" height="34" viewBox="0 0 31 34" fill="none" xmlns="http://www.w3.org/2000/svg">
<path d="M11.957 9.77344C9.96484 9.77344 8.38281 11.2969 8.38281 13.1719C8.38281 15.0469 9.96484 16.5703 11.957 16.5703C13.9492 16.5703 15.5898 15.0469 15.5898 13.1719C15.5898 11.2969 13.9492 9.77344 11.957 9.77344ZM20.3945 9.77344C18.4023 9.77344 16.7617 11.2969 16.7617 13.1719C16.7617 15.0469 18.4023 16.5703 20.3945 16.5703C22.3867 16.5703 23.9688 15.0469 23.9688 13.1719C23.9688 11.2969 22.3867 9.77344 20.3945 9.77344ZM29.5352 15.0469L29.1836 15.2812V3.67969C29.1836 2.09766 28.0117 0.75 26.4883 0.75H5.45312C3.98828 0.75 2.75781 2.09766 2.75781 3.67969V15.2812C2.64062 15.2227 2.52344 15.1641 2.40625 15.0469C1.52734 14.4609 0.941406 15.2812 1.46875 16.1016C2.52344 17.3906 4.57422 19.0312 7.67969 20.3203C4.39844 31.5703 15.7656 33.3281 15.5312 27.5859C15.5312 27.5273 15.5898 24.2461 15.5898 21.9023C15.8828 21.9609 16.1172 22.0781 16.3516 22.0781C16.3516 24.4219 16.4102 27.5273 16.4102 27.5859C16.2344 33.3281 27.543 31.5703 24.2617 20.3203C27.3672 19.0312 29.418 17.4492 30.4727 16.1016C31 15.2812 30.4141 14.4609 29.5352 15.0469ZM27.7773 16.1602C23.7344 18.3867 20.2188 17.9766 18.3438 17.918C16.9375 17.8594 16.4688 18.4453 16.3516 19.3828C15.7656 18.9141 15.2969 18.4453 15.1797 18.3867C14.8867 18.0352 14.3594 17.918 13.5977 17.918C11.7227 17.9766 8.32422 18.3867 4.39844 16.2773V5.02734C4.39844 2.97656 4.92578 2.33203 6.74219 2.33203H25.375C27.1328 2.33203 27.7773 3.09375 27.7773 5.02734V16.1602Z" fill="#F48C06"/>
</svg>
