<svg width="27" height="31" viewBox="0 0 27 31" fill="none" xmlns="http://www.w3.org/2000/svg">
<path d="M26.25 21.8438V2.15625C26.25 1.39453 25.6055 0.75 24.8438 0.75H5.625C2.51953 0.75 0 3.26953 0 6.375V25.125C0 28.2305 2.51953 30.75 5.625 30.75H24.8438C25.6055 30.75 26.25 30.1641 26.25 29.3438V28.4062C26.25 27.9961 26.0156 27.5859 25.7227 27.3516C25.4297 26.4141 25.4297 23.8359 25.7227 22.957C26.0156 22.7227 26.25 22.3125 26.25 21.8438ZM7.5 8.60156C7.5 8.42578 7.61719 8.25 7.85156 8.25H20.2734C20.4492 8.25 20.625 8.42578 20.625 8.60156V9.77344C20.625 10.0078 20.4492 10.125 20.2734 10.125H7.85156C7.61719 10.125 7.5 10.0078 7.5 9.77344V8.60156ZM7.5 12.3516C7.5 12.1758 7.61719 12 7.85156 12H20.2734C20.4492 12 20.625 12.1758 20.625 12.3516V13.5234C20.625 13.7578 20.4492 13.875 20.2734 13.875H7.85156C7.61719 13.875 7.5 13.7578 7.5 13.5234V12.3516ZM22.3242 27H5.625C4.57031 27 3.75 26.1797 3.75 25.125C3.75 24.1289 4.57031 23.25 5.625 23.25H22.3242C22.207 24.3047 22.207 26.0039 22.3242 27Z" fill="#EE645B"/>
</svg>
