<svg width="90" height="77" viewBox="0 0 90 77" fill="none" xmlns="http://www.w3.org/2000/svg">
<g clip-path="url(#clip0_10_701)">
<path d="M73.7482 18.8718L32.0183 21.9757C30.2603 22.1064 28.7522 23.2008 28.0825 24.8315C27.4129 26.4623 27.7166 28.3008 28.8754 29.6293L38.0269 40.1216L53.0626 32.53C53.7545 32.1806 54.5987 32.4583 54.9481 33.1503C55.2974 33.8422 55.0197 34.6864 54.3278 35.0357L39.292 42.6274L42.3016 56.2207C42.6827 57.942 43.9816 59.278 45.6915 59.7073C47.4047 60.1374 49.1793 59.5703 50.3264 58.2357L77.5996 26.4996C78.8414 25.0547 79.0792 23.1006 78.2205 21.3999C77.3618 19.6991 75.6481 18.7303 73.7482 18.8718Z" fill="#41BE90"/>
</g>
<line x1="9.52436" y1="48.1154" x2="29.3229" y2="38.119" stroke="#41BE90" stroke-width="2.73088" stroke-linecap="round"/>
<line x1="18.957" y1="49.7926" x2="31.9136" y2="43.2508" stroke="#FBA333" stroke-width="2.73088" stroke-linecap="round"/>
<line x1="27.5341" y1="51.901" x2="34.504" y2="48.3819" stroke="#41BE90" stroke-width="2.73088" stroke-linecap="round"/>
<defs>
<clipPath id="clip0_10_701">
<rect width="47.9037" height="47.9037" fill="white" transform="translate(24.6631 21.6094) rotate(-26.7895)"/>
</clipPath>
</defs>
</svg>
